<?xml version="1.0" encoding="UTF-8"?>
<svg id="Layer_1" data-name="Layer 1" xmlns="http://www.w3.org/2000/svg" viewBox="0 0 144.53 121.97">
  <defs>
    <style>
      .cls-1 {
        fill: #231f20;
        stroke-width: 0px;
      }
    </style>
  </defs>
  <path class="cls-1" d="M14.28,117.31c-3.14-2.84-4.71-7.04-4.71-12.61v-27.96c0-3.54-.66-5.95-1.98-7.22-1.32-1.27-3.85-1.9-7.6-1.9v-13.68c3.75,0,6.28-.63,7.6-1.9,1.31-1.27,1.98-3.67,1.98-7.22v-27.96c0-5.57,1.57-9.78,4.71-12.61C17.42,1.42,21.48,0,26.44,0h8.51v13.68h-2.43c-2.74,0-4.76.79-6.08,2.36-1.32,1.57-1.98,4.38-1.98,8.43v22.79c0,7.09-3.09,11.55-9.27,13.37v.3c6.18,1.82,9.27,6.28,9.27,13.37v22.79c0,4.05.66,6.86,1.98,8.43,1.32,1.57,3.34,2.36,6.08,2.36h2.43v13.68h-8.51c-4.96,0-9.02-1.42-12.16-4.25Z"/>
  <path class="cls-1" d="M109.58,108.29h2.43c2.74,0,4.76-.78,6.08-2.36,1.32-1.57,1.98-4.38,1.98-8.43v-22.79c0-7.09,3.09-11.55,9.27-13.37v-.3c-6.18-1.82-9.27-6.28-9.27-13.37v-22.79c0-4.05-.66-6.86-1.98-8.43-1.32-1.57-3.34-2.36-6.08-2.36h-2.43V.4h8.51c4.96,0,9.02,1.42,12.16,4.25,3.14,2.84,4.71,7.04,4.71,12.61v27.96c0,3.55.66,5.95,1.98,7.22,1.32,1.27,3.85,1.9,7.6,1.9v13.68c-3.75,0-6.28.63-7.6,1.9-1.32,1.27-1.98,3.67-1.98,7.22v27.96c0,5.57-1.57,9.78-4.71,12.61-3.14,2.83-7.19,4.25-12.16,4.25h-8.51v-13.68Z"/>
  <circle class="cls-1" cx="72.26" cy="61.18" r="11.21"/>
  <circle class="cls-1" cx="98.37" cy="61.18" r="11.21"/>
  <circle class="cls-1" cx="46.16" cy="61.18" r="11.21"/>
</svg>